<mxfile host="app.diagrams.net" modified="2022-02-02T14:07:42.353Z" agent="5.0 (Windows NT 10.0; Win64; x64) AppleWebKit/537.36 (KHTML, like Gecko) Chrome/97.0.4692.99 Safari/537.36" etag="C9Fjbr3djJPmyR1o4Ay3" version="16.5.2" type="github">
  <diagram name="Page-1" id="52a04d89-c75d-2922-d76d-85b35f80e030">
    <mxGraphModel dx="868" dy="425" grid="1" gridSize="10" guides="1" tooltips="1" connect="1" arrows="1" fold="1" page="1" pageScale="1" pageWidth="1100" pageHeight="850" background="none" math="0" shadow="0">
      <root>
        <mxCell id="0" />
        <mxCell id="1" parent="0" />
        <mxCell id="CykZe8ZlgCOdlAW5LK25-1" value="&lt;h1&gt;Level - 1 Data Flow Diagram&lt;/h1&gt;" style="text;html=1;align=center;verticalAlign=middle;resizable=0;points=[];autosize=1;strokeColor=none;fillColor=none;fontSize=13;" parent="1" vertex="1">
          <mxGeometry x="290" y="70" width="360" height="60" as="geometry" />
        </mxCell>
        <mxCell id="CykZe8ZlgCOdlAW5LK25-2" value="Customer" style="whiteSpace=wrap;html=1;aspect=fixed;fontSize=13;" parent="1" vertex="1">
          <mxGeometry x="110" y="180" width="80" height="80" as="geometry" />
        </mxCell>
        <mxCell id="CykZe8ZlgCOdlAW5LK25-4" value="IEX Cloud API" style="whiteSpace=wrap;html=1;aspect=fixed;fontSize=13;" parent="1" vertex="1">
          <mxGeometry x="600" y="180" width="80" height="80" as="geometry" />
        </mxCell>
        <mxCell id="CykZe8ZlgCOdlAW5LK25-5" value="Login/&lt;br&gt;Authentication" style="ellipse;whiteSpace=wrap;html=1;aspect=fixed;fontSize=13;" parent="1" vertex="1">
          <mxGeometry x="305" y="165" width="110" height="110" as="geometry" />
        </mxCell>
        <mxCell id="CykZe8ZlgCOdlAW5LK25-6" value="Sell Shares (Already Bought)" style="ellipse;whiteSpace=wrap;html=1;aspect=fixed;fontSize=13;" parent="1" vertex="1">
          <mxGeometry x="460" y="370" width="120" height="120" as="geometry" />
        </mxCell>
        <mxCell id="CykZe8ZlgCOdlAW5LK25-7" value="Buy Shares" style="ellipse;whiteSpace=wrap;html=1;aspect=fixed;fontSize=13;" parent="1" vertex="1">
          <mxGeometry x="790" y="530" width="117.5" height="117.5" as="geometry" />
        </mxCell>
        <mxCell id="CykZe8ZlgCOdlAW5LK25-8" value="Dashboard" style="ellipse;whiteSpace=wrap;html=1;aspect=fixed;fontSize=13;" parent="1" vertex="1">
          <mxGeometry x="240" y="385" width="80" height="80" as="geometry" />
        </mxCell>
        <mxCell id="CykZe8ZlgCOdlAW5LK25-9" value="Quote (View Share Prices)" style="ellipse;whiteSpace=wrap;html=1;aspect=fixed;fontSize=13;" parent="1" vertex="1">
          <mxGeometry x="630" y="460" width="120" height="120" as="geometry" />
        </mxCell>
        <mxCell id="CykZe8ZlgCOdlAW5LK25-10" value="Customer info" style="html=1;dashed=0;whitespace=wrap;shape=partialRectangle;right=0;fontSize=13;" parent="1" vertex="1">
          <mxGeometry x="60" y="310" width="120" height="40" as="geometry" />
        </mxCell>
        <mxCell id="CykZe8ZlgCOdlAW5LK25-11" value="Customer Transaction" style="html=1;dashed=0;whitespace=wrap;shape=partialRectangle;right=0;fontSize=13;" parent="1" vertex="1">
          <mxGeometry x="270" y="720" width="140" height="40" as="geometry" />
        </mxCell>
        <mxCell id="CykZe8ZlgCOdlAW5LK25-12" value="" style="endArrow=classic;html=1;rounded=0;fontSize=13;exitX=1;exitY=0.5;exitDx=0;exitDy=0;entryX=0;entryY=0.5;entryDx=0;entryDy=0;" parent="1" source="CykZe8ZlgCOdlAW5LK25-2" target="CykZe8ZlgCOdlAW5LK25-5" edge="1">
          <mxGeometry width="50" height="50" relative="1" as="geometry">
            <mxPoint x="420" y="380" as="sourcePoint" />
            <mxPoint x="470" y="330" as="targetPoint" />
          </mxGeometry>
        </mxCell>
        <mxCell id="CykZe8ZlgCOdlAW5LK25-13" value="Login/Register" style="edgeLabel;html=1;align=center;verticalAlign=middle;resizable=0;points=[];fontSize=13;" parent="CykZe8ZlgCOdlAW5LK25-12" vertex="1" connectable="0">
          <mxGeometry x="-0.1553" y="3" relative="1" as="geometry">
            <mxPoint as="offset" />
          </mxGeometry>
        </mxCell>
        <mxCell id="CykZe8ZlgCOdlAW5LK25-14" value="" style="endArrow=classic;html=1;rounded=0;fontSize=13;exitX=0.5;exitY=1;exitDx=0;exitDy=0;entryX=0.5;entryY=0;entryDx=0;entryDy=0;fontStyle=0;startArrow=none;" parent="1" source="CykZe8ZlgCOdlAW5LK25-15" target="CykZe8ZlgCOdlAW5LK25-8" edge="1">
          <mxGeometry width="50" height="50" relative="1" as="geometry">
            <mxPoint x="420" y="380" as="sourcePoint" />
            <mxPoint x="395" y="360" as="targetPoint" />
          </mxGeometry>
        </mxCell>
        <mxCell id="CykZe8ZlgCOdlAW5LK25-15" value="Status" style="text;html=1;align=center;verticalAlign=middle;resizable=0;points=[];autosize=1;strokeColor=none;fillColor=none;fontSize=13;" parent="1" vertex="1">
          <mxGeometry x="300" y="300" width="50" height="20" as="geometry" />
        </mxCell>
        <mxCell id="CykZe8ZlgCOdlAW5LK25-16" value="" style="endArrow=none;html=1;rounded=0;fontSize=13;exitX=0.5;exitY=1;exitDx=0;exitDy=0;entryX=0.5;entryY=0;entryDx=0;entryDy=0;fontStyle=0" parent="1" source="CykZe8ZlgCOdlAW5LK25-5" target="CykZe8ZlgCOdlAW5LK25-15" edge="1">
          <mxGeometry width="50" height="50" relative="1" as="geometry">
            <mxPoint x="395" y="310" as="sourcePoint" />
            <mxPoint x="400" y="380" as="targetPoint" />
          </mxGeometry>
        </mxCell>
        <mxCell id="CykZe8ZlgCOdlAW5LK25-17" value="" style="endArrow=classic;html=1;rounded=0;fontSize=13;entryX=0.675;entryY=1.025;entryDx=0;entryDy=0;entryPerimeter=0;" parent="1" target="CykZe8ZlgCOdlAW5LK25-4" edge="1">
          <mxGeometry width="50" height="50" relative="1" as="geometry">
            <mxPoint x="680" y="350" as="sourcePoint" />
            <mxPoint x="712" y="140" as="targetPoint" />
          </mxGeometry>
        </mxCell>
        <mxCell id="CykZe8ZlgCOdlAW5LK25-18" value="API Key and &lt;br&gt;Company Symbol" style="edgeLabel;html=1;align=center;verticalAlign=middle;resizable=0;points=[];fontSize=13;" parent="CykZe8ZlgCOdlAW5LK25-17" vertex="1" connectable="0">
          <mxGeometry x="-0.1761" y="-4" relative="1" as="geometry">
            <mxPoint x="17" y="-12" as="offset" />
          </mxGeometry>
        </mxCell>
        <mxCell id="CykZe8ZlgCOdlAW5LK25-23" value="Purchased" style="html=1;dashed=0;whitespace=wrap;shape=partialRectangle;right=0;fontSize=13;" parent="1" vertex="1">
          <mxGeometry x="470" y="600" width="130" height="40" as="geometry" />
        </mxCell>
        <mxCell id="CykZe8ZlgCOdlAW5LK25-24" value="" style="endArrow=none;html=1;rounded=0;fontSize=13;" parent="1" source="CykZe8ZlgCOdlAW5LK25-9" edge="1">
          <mxGeometry width="50" height="50" relative="1" as="geometry">
            <mxPoint x="620" y="430" as="sourcePoint" />
            <mxPoint x="680" y="350" as="targetPoint" />
            <Array as="points" />
          </mxGeometry>
        </mxCell>
        <mxCell id="CykZe8ZlgCOdlAW5LK25-26" value="" style="endArrow=none;html=1;rounded=0;fontSize=13;exitX=0.349;exitY=0.03;exitDx=0;exitDy=0;exitPerimeter=0;" parent="1" source="CykZe8ZlgCOdlAW5LK25-7" edge="1">
          <mxGeometry width="50" height="50" relative="1" as="geometry">
            <mxPoint x="800" y="430" as="sourcePoint" />
            <mxPoint x="680" y="350" as="targetPoint" />
          </mxGeometry>
        </mxCell>
        <mxCell id="CykZe8ZlgCOdlAW5LK25-27" value="" style="endArrow=none;html=1;rounded=0;fontSize=13;exitX=0.742;exitY=0.067;exitDx=0;exitDy=0;exitPerimeter=0;" parent="1" source="CykZe8ZlgCOdlAW5LK25-6" edge="1">
          <mxGeometry width="50" height="50" relative="1" as="geometry">
            <mxPoint x="480" y="490" as="sourcePoint" />
            <mxPoint x="680" y="350" as="targetPoint" />
          </mxGeometry>
        </mxCell>
        <mxCell id="CykZe8ZlgCOdlAW5LK25-28" value="" style="endArrow=none;html=1;rounded=0;fontSize=13;" parent="1" edge="1">
          <mxGeometry width="50" height="50" relative="1" as="geometry">
            <mxPoint x="610" y="350" as="sourcePoint" />
            <mxPoint x="630" y="260" as="targetPoint" />
          </mxGeometry>
        </mxCell>
        <mxCell id="CykZe8ZlgCOdlAW5LK25-32" value="Information &lt;br&gt;about Shares" style="edgeLabel;html=1;align=center;verticalAlign=middle;resizable=0;points=[];fontSize=13;" parent="CykZe8ZlgCOdlAW5LK25-28" vertex="1" connectable="0">
          <mxGeometry x="-0.2518" y="2" relative="1" as="geometry">
            <mxPoint x="-25" y="4" as="offset" />
          </mxGeometry>
        </mxCell>
        <mxCell id="CykZe8ZlgCOdlAW5LK25-29" value="" style="endArrow=classic;html=1;rounded=0;fontSize=13;entryX=0.238;entryY=0.115;entryDx=0;entryDy=0;entryPerimeter=0;" parent="1" target="CykZe8ZlgCOdlAW5LK25-7" edge="1">
          <mxGeometry width="50" height="50" relative="1" as="geometry">
            <mxPoint x="610" y="350" as="sourcePoint" />
            <mxPoint x="480" y="310" as="targetPoint" />
          </mxGeometry>
        </mxCell>
        <mxCell id="CykZe8ZlgCOdlAW5LK25-30" value="" style="endArrow=classic;html=1;rounded=0;fontSize=13;entryX=0.433;entryY=0.029;entryDx=0;entryDy=0;entryPerimeter=0;" parent="1" target="CykZe8ZlgCOdlAW5LK25-9" edge="1">
          <mxGeometry width="50" height="50" relative="1" as="geometry">
            <mxPoint x="610" y="350" as="sourcePoint" />
            <mxPoint x="600" y="350" as="targetPoint" />
          </mxGeometry>
        </mxCell>
        <mxCell id="CykZe8ZlgCOdlAW5LK25-31" value="" style="endArrow=classic;html=1;rounded=0;fontSize=13;entryX=0.5;entryY=0;entryDx=0;entryDy=0;" parent="1" target="CykZe8ZlgCOdlAW5LK25-6" edge="1">
          <mxGeometry width="50" height="50" relative="1" as="geometry">
            <mxPoint x="610" y="350" as="sourcePoint" />
            <mxPoint x="530" y="350" as="targetPoint" />
          </mxGeometry>
        </mxCell>
        <mxCell id="CykZe8ZlgCOdlAW5LK25-33" value="" style="endArrow=classic;html=1;rounded=0;fontSize=13;exitX=0;exitY=0.5;exitDx=0;exitDy=0;entryX=1;entryY=0;entryDx=0;entryDy=0;" parent="1" source="CykZe8ZlgCOdlAW5LK25-4" target="CykZe8ZlgCOdlAW5LK25-8" edge="1">
          <mxGeometry width="50" height="50" relative="1" as="geometry">
            <mxPoint x="430" y="350" as="sourcePoint" />
            <mxPoint x="310" y="410" as="targetPoint" />
          </mxGeometry>
        </mxCell>
        <mxCell id="CykZe8ZlgCOdlAW5LK25-34" value="Update Share prices &lt;br&gt;according to stock exchange" style="edgeLabel;html=1;align=center;verticalAlign=middle;resizable=0;points=[];fontSize=13;" parent="CykZe8ZlgCOdlAW5LK25-33" vertex="1" connectable="0">
          <mxGeometry x="0.1474" y="4" relative="1" as="geometry">
            <mxPoint x="68" y="-101" as="offset" />
          </mxGeometry>
        </mxCell>
        <mxCell id="CykZe8ZlgCOdlAW5LK25-35" value="" style="endArrow=classic;html=1;rounded=0;fontSize=13;exitX=1;exitY=0.5;exitDx=0;exitDy=0;entryX=0;entryY=0.5;entryDx=0;entryDy=0;" parent="1" source="CykZe8ZlgCOdlAW5LK25-8" target="CykZe8ZlgCOdlAW5LK25-6" edge="1">
          <mxGeometry width="50" height="50" relative="1" as="geometry">
            <mxPoint x="430" y="540" as="sourcePoint" />
            <mxPoint x="480" y="490" as="targetPoint" />
          </mxGeometry>
        </mxCell>
        <mxCell id="CykZe8ZlgCOdlAW5LK25-36" value="Selling" style="edgeLabel;html=1;align=center;verticalAlign=middle;resizable=0;points=[];fontSize=13;" parent="CykZe8ZlgCOdlAW5LK25-35" vertex="1" connectable="0">
          <mxGeometry x="-0.4095" y="-3" relative="1" as="geometry">
            <mxPoint x="27" y="-1" as="offset" />
          </mxGeometry>
        </mxCell>
        <mxCell id="CykZe8ZlgCOdlAW5LK25-37" value="" style="endArrow=classic;html=1;rounded=0;fontSize=13;entryX=0;entryY=0.5;entryDx=0;entryDy=0;exitX=0.938;exitY=0.775;exitDx=0;exitDy=0;exitPerimeter=0;" parent="1" source="CykZe8ZlgCOdlAW5LK25-8" target="CykZe8ZlgCOdlAW5LK25-9" edge="1">
          <mxGeometry width="50" height="50" relative="1" as="geometry">
            <mxPoint x="320" y="440" as="sourcePoint" />
            <mxPoint x="450" y="500" as="targetPoint" />
          </mxGeometry>
        </mxCell>
        <mxCell id="CykZe8ZlgCOdlAW5LK25-38" value="View Prices" style="edgeLabel;html=1;align=center;verticalAlign=middle;resizable=0;points=[];fontSize=13;" parent="CykZe8ZlgCOdlAW5LK25-37" vertex="1" connectable="0">
          <mxGeometry x="-0.1079" y="-5" relative="1" as="geometry">
            <mxPoint x="-74" y="-24" as="offset" />
          </mxGeometry>
        </mxCell>
        <mxCell id="CykZe8ZlgCOdlAW5LK25-39" value="" style="endArrow=classic;html=1;rounded=0;fontSize=13;exitX=0.738;exitY=0.988;exitDx=0;exitDy=0;exitPerimeter=0;" parent="1" source="CykZe8ZlgCOdlAW5LK25-8" edge="1">
          <mxGeometry width="50" height="50" relative="1" as="geometry">
            <mxPoint x="430" y="540" as="sourcePoint" />
            <mxPoint x="800" y="620" as="targetPoint" />
          </mxGeometry>
        </mxCell>
        <mxCell id="CykZe8ZlgCOdlAW5LK25-40" value="Buy shares" style="edgeLabel;html=1;align=center;verticalAlign=middle;resizable=0;points=[];fontSize=13;" parent="CykZe8ZlgCOdlAW5LK25-39" vertex="1" connectable="0">
          <mxGeometry x="-0.57" y="-2" relative="1" as="geometry">
            <mxPoint x="-44" y="-20" as="offset" />
          </mxGeometry>
        </mxCell>
        <mxCell id="CykZe8ZlgCOdlAW5LK25-41" value="Transaction History" style="ellipse;whiteSpace=wrap;html=1;aspect=fixed;fontSize=13;" parent="1" vertex="1">
          <mxGeometry x="60" y="490" width="120" height="120" as="geometry" />
        </mxCell>
        <mxCell id="CykZe8ZlgCOdlAW5LK25-42" value="" style="endArrow=classic;html=1;rounded=0;fontSize=13;exitX=0;exitY=1;exitDx=0;exitDy=0;entryX=1;entryY=0;entryDx=0;entryDy=0;" parent="1" source="CykZe8ZlgCOdlAW5LK25-8" target="CykZe8ZlgCOdlAW5LK25-41" edge="1">
          <mxGeometry width="50" height="50" relative="1" as="geometry">
            <mxPoint x="430" y="540" as="sourcePoint" />
            <mxPoint x="480" y="490" as="targetPoint" />
          </mxGeometry>
        </mxCell>
        <mxCell id="CykZe8ZlgCOdlAW5LK25-43" value="Show &lt;br&gt;Transactions" style="edgeLabel;html=1;align=center;verticalAlign=middle;resizable=0;points=[];fontSize=13;" parent="CykZe8ZlgCOdlAW5LK25-42" vertex="1" connectable="0">
          <mxGeometry x="-0.3483" relative="1" as="geometry">
            <mxPoint y="19" as="offset" />
          </mxGeometry>
        </mxCell>
        <mxCell id="CykZe8ZlgCOdlAW5LK25-45" value="" style="endArrow=classic;html=1;rounded=0;fontSize=13;entryX=0.5;entryY=0;entryDx=0;entryDy=0;exitX=0;exitY=1;exitDx=0;exitDy=0;" parent="1" source="CykZe8ZlgCOdlAW5LK25-5" target="CykZe8ZlgCOdlAW5LK25-41" edge="1">
          <mxGeometry width="50" height="50" relative="1" as="geometry">
            <mxPoint x="125" y="360" as="sourcePoint" />
            <mxPoint x="175" y="310" as="targetPoint" />
          </mxGeometry>
        </mxCell>
        <mxCell id="CykZe8ZlgCOdlAW5LK25-46" value="Status" style="edgeLabel;html=1;align=center;verticalAlign=middle;resizable=0;points=[];fontSize=13;" parent="CykZe8ZlgCOdlAW5LK25-45" vertex="1" connectable="0">
          <mxGeometry x="-0.1234" y="-8" relative="1" as="geometry">
            <mxPoint as="offset" />
          </mxGeometry>
        </mxCell>
        <mxCell id="CykZe8ZlgCOdlAW5LK25-47" value="" style="endArrow=classic;html=1;rounded=0;fontSize=13;exitX=1;exitY=1;exitDx=0;exitDy=0;entryX=0.208;entryY=0.108;entryDx=0;entryDy=0;entryPerimeter=0;" parent="1" source="CykZe8ZlgCOdlAW5LK25-5" target="CykZe8ZlgCOdlAW5LK25-6" edge="1">
          <mxGeometry width="50" height="50" relative="1" as="geometry">
            <mxPoint x="440" y="330" as="sourcePoint" />
            <mxPoint x="490" y="280" as="targetPoint" />
          </mxGeometry>
        </mxCell>
        <mxCell id="CykZe8ZlgCOdlAW5LK25-48" value="Status" style="edgeLabel;html=1;align=center;verticalAlign=middle;resizable=0;points=[];fontSize=13;" parent="CykZe8ZlgCOdlAW5LK25-47" vertex="1" connectable="0">
          <mxGeometry x="-0.5995" y="-2" relative="1" as="geometry">
            <mxPoint x="1" y="18" as="offset" />
          </mxGeometry>
        </mxCell>
        <mxCell id="CykZe8ZlgCOdlAW5LK25-49" value="" style="endArrow=classic;html=1;rounded=0;fontSize=13;exitX=1;exitY=1;exitDx=0;exitDy=0;entryX=0.333;entryY=0.008;entryDx=0;entryDy=0;entryPerimeter=0;" parent="1" source="CykZe8ZlgCOdlAW5LK25-5" target="CykZe8ZlgCOdlAW5LK25-9" edge="1">
          <mxGeometry width="50" height="50" relative="1" as="geometry">
            <mxPoint x="460" y="190" as="sourcePoint" />
            <mxPoint x="510" y="140" as="targetPoint" />
          </mxGeometry>
        </mxCell>
        <mxCell id="CykZe8ZlgCOdlAW5LK25-50" value="Status" style="edgeLabel;html=1;align=center;verticalAlign=middle;resizable=0;points=[];fontSize=13;" parent="CykZe8ZlgCOdlAW5LK25-49" vertex="1" connectable="0">
          <mxGeometry x="-0.2569" relative="1" as="geometry">
            <mxPoint as="offset" />
          </mxGeometry>
        </mxCell>
        <mxCell id="CykZe8ZlgCOdlAW5LK25-53" value="" style="endArrow=classic;html=1;rounded=0;fontSize=13;entryX=0.391;entryY=0.026;entryDx=0;entryDy=0;entryPerimeter=0;exitX=0.955;exitY=0.755;exitDx=0;exitDy=0;exitPerimeter=0;" parent="1" source="CykZe8ZlgCOdlAW5LK25-5" target="CykZe8ZlgCOdlAW5LK25-7" edge="1">
          <mxGeometry width="50" height="50" relative="1" as="geometry">
            <mxPoint x="510" y="310" as="sourcePoint" />
            <mxPoint x="840" y="420" as="targetPoint" />
          </mxGeometry>
        </mxCell>
        <mxCell id="CykZe8ZlgCOdlAW5LK25-54" value="Status" style="edgeLabel;html=1;align=center;verticalAlign=middle;resizable=0;points=[];fontSize=13;" parent="CykZe8ZlgCOdlAW5LK25-53" vertex="1" connectable="0">
          <mxGeometry x="-0.7989" y="-2" relative="1" as="geometry">
            <mxPoint x="18" y="-4" as="offset" />
          </mxGeometry>
        </mxCell>
        <mxCell id="CykZe8ZlgCOdlAW5LK25-55" value="" style="endArrow=classic;html=1;rounded=0;fontSize=13;entryX=0.25;entryY=0;entryDx=0;entryDy=0;exitX=0.036;exitY=0.709;exitDx=0;exitDy=0;exitPerimeter=0;" parent="1" edge="1">
          <mxGeometry width="50" height="50" relative="1" as="geometry">
            <mxPoint x="305.00000000000006" y="242.99" as="sourcePoint" />
            <mxPoint x="86.04" y="310" as="targetPoint" />
          </mxGeometry>
        </mxCell>
        <mxCell id="bcnV61EyOElLZ_rQ96tX-2" value="&lt;font style=&quot;font-size: 13px&quot;&gt;Request info&lt;/font&gt;" style="edgeLabel;html=1;align=center;verticalAlign=middle;resizable=0;points=[];" vertex="1" connectable="0" parent="CykZe8ZlgCOdlAW5LK25-55">
          <mxGeometry x="0.1873" y="3" relative="1" as="geometry">
            <mxPoint x="-26" y="4" as="offset" />
          </mxGeometry>
        </mxCell>
        <mxCell id="CykZe8ZlgCOdlAW5LK25-57" value="" style="endArrow=classic;html=1;rounded=0;fontSize=13;exitX=0;exitY=0.5;exitDx=0;exitDy=0;" parent="1" source="CykZe8ZlgCOdlAW5LK25-7" target="CykZe8ZlgCOdlAW5LK25-23" edge="1">
          <mxGeometry width="50" height="50" relative="1" as="geometry">
            <mxPoint x="440" y="730" as="sourcePoint" />
            <mxPoint x="490" y="680" as="targetPoint" />
          </mxGeometry>
        </mxCell>
        <mxCell id="CykZe8ZlgCOdlAW5LK25-58" value="Shares Bought" style="edgeLabel;html=1;align=center;verticalAlign=middle;resizable=0;points=[];fontSize=13;" parent="CykZe8ZlgCOdlAW5LK25-57" vertex="1" connectable="0">
          <mxGeometry x="0.2513" y="-5" relative="1" as="geometry">
            <mxPoint y="12" as="offset" />
          </mxGeometry>
        </mxCell>
        <mxCell id="CykZe8ZlgCOdlAW5LK25-59" value="" style="endArrow=classic;html=1;rounded=0;fontSize=13;entryX=1;entryY=0;entryDx=0;entryDy=0;" parent="1" target="CykZe8ZlgCOdlAW5LK25-11" edge="1">
          <mxGeometry width="50" height="50" relative="1" as="geometry">
            <mxPoint x="790" y="610" as="sourcePoint" />
            <mxPoint x="490" y="480" as="targetPoint" />
          </mxGeometry>
        </mxCell>
        <mxCell id="CykZe8ZlgCOdlAW5LK25-60" value="Purchase Record" style="edgeLabel;html=1;align=center;verticalAlign=middle;resizable=0;points=[];fontSize=13;" parent="CykZe8ZlgCOdlAW5LK25-59" vertex="1" connectable="0">
          <mxGeometry x="0.6133" y="3" relative="1" as="geometry">
            <mxPoint x="20" y="2" as="offset" />
          </mxGeometry>
        </mxCell>
        <mxCell id="CykZe8ZlgCOdlAW5LK25-61" value="" style="endArrow=classic;html=1;rounded=0;fontSize=13;entryX=0.643;entryY=-0.075;entryDx=0;entryDy=0;entryPerimeter=0;exitX=0;exitY=1;exitDx=0;exitDy=0;" parent="1" source="CykZe8ZlgCOdlAW5LK25-6" target="CykZe8ZlgCOdlAW5LK25-11" edge="1">
          <mxGeometry width="50" height="50" relative="1" as="geometry">
            <mxPoint x="500" y="490" as="sourcePoint" />
            <mxPoint x="490" y="480" as="targetPoint" />
          </mxGeometry>
        </mxCell>
        <mxCell id="CykZe8ZlgCOdlAW5LK25-62" value="Sale Record" style="edgeLabel;html=1;align=center;verticalAlign=middle;resizable=0;points=[];fontSize=13;" parent="CykZe8ZlgCOdlAW5LK25-61" vertex="1" connectable="0">
          <mxGeometry x="0.3302" relative="1" as="geometry">
            <mxPoint as="offset" />
          </mxGeometry>
        </mxCell>
        <mxCell id="CykZe8ZlgCOdlAW5LK25-63" value="" style="endArrow=classic;html=1;rounded=0;fontSize=13;" parent="1" edge="1">
          <mxGeometry width="50" height="50" relative="1" as="geometry">
            <mxPoint x="516" y="600" as="sourcePoint" />
            <mxPoint x="516" y="490" as="targetPoint" />
          </mxGeometry>
        </mxCell>
        <mxCell id="CykZe8ZlgCOdlAW5LK25-64" value="Purchased &lt;br&gt;Stock" style="edgeLabel;html=1;align=center;verticalAlign=middle;resizable=0;points=[];fontSize=13;" parent="CykZe8ZlgCOdlAW5LK25-63" vertex="1" connectable="0">
          <mxGeometry x="-0.42" y="-1" relative="1" as="geometry">
            <mxPoint x="3" y="9" as="offset" />
          </mxGeometry>
        </mxCell>
        <mxCell id="CykZe8ZlgCOdlAW5LK25-65" value="" style="endArrow=classic;html=1;rounded=0;fontSize=13;exitX=0;exitY=0;exitDx=0;exitDy=0;entryX=0.792;entryY=0.858;entryDx=0;entryDy=0;entryPerimeter=0;" parent="1" source="CykZe8ZlgCOdlAW5LK25-11" target="CykZe8ZlgCOdlAW5LK25-41" edge="1">
          <mxGeometry width="50" height="50" relative="1" as="geometry">
            <mxPoint x="190" y="700" as="sourcePoint" />
            <mxPoint x="240" y="650" as="targetPoint" />
          </mxGeometry>
        </mxCell>
        <mxCell id="CykZe8ZlgCOdlAW5LK25-66" value="Show Transactions" style="edgeLabel;html=1;align=center;verticalAlign=middle;resizable=0;points=[];fontSize=13;" parent="CykZe8ZlgCOdlAW5LK25-65" vertex="1" connectable="0">
          <mxGeometry x="0.2895" y="1" relative="1" as="geometry">
            <mxPoint as="offset" />
          </mxGeometry>
        </mxCell>
        <mxCell id="eKBkf0iXLbPakKBnh31r-1" value="" style="endArrow=classic;html=1;rounded=0;exitX=0.073;exitY=0.182;exitDx=0;exitDy=0;exitPerimeter=0;entryX=1.038;entryY=0.113;entryDx=0;entryDy=0;entryPerimeter=0;" parent="1" source="CykZe8ZlgCOdlAW5LK25-5" target="CykZe8ZlgCOdlAW5LK25-2" edge="1">
          <mxGeometry width="50" height="50" relative="1" as="geometry">
            <mxPoint x="240" y="180" as="sourcePoint" />
            <mxPoint x="290" y="130" as="targetPoint" />
          </mxGeometry>
        </mxCell>
        <mxCell id="eKBkf0iXLbPakKBnh31r-2" value="&lt;font style=&quot;font-size: 13px&quot;&gt;Response&lt;/font&gt;" style="edgeLabel;html=1;align=center;verticalAlign=middle;resizable=0;points=[];" parent="eKBkf0iXLbPakKBnh31r-1" vertex="1" connectable="0">
          <mxGeometry x="-0.298" y="3" relative="1" as="geometry">
            <mxPoint as="offset" />
          </mxGeometry>
        </mxCell>
        <mxCell id="bcnV61EyOElLZ_rQ96tX-1" value="" style="endArrow=classic;html=1;rounded=0;entryX=0.145;entryY=0.8;entryDx=0;entryDy=0;entryPerimeter=0;exitX=1;exitY=0.75;exitDx=0;exitDy=0;" edge="1" parent="1" source="CykZe8ZlgCOdlAW5LK25-10" target="CykZe8ZlgCOdlAW5LK25-5">
          <mxGeometry width="50" height="50" relative="1" as="geometry">
            <mxPoint x="120" y="400" as="sourcePoint" />
            <mxPoint x="120" y="420.71067811865476" as="targetPoint" />
          </mxGeometry>
        </mxCell>
        <mxCell id="bcnV61EyOElLZ_rQ96tX-3" value="Response" style="edgeLabel;html=1;align=center;verticalAlign=middle;resizable=0;points=[];fontSize=13;" vertex="1" connectable="0" parent="bcnV61EyOElLZ_rQ96tX-1">
          <mxGeometry x="0.2011" y="-1" relative="1" as="geometry">
            <mxPoint x="-22" y="13" as="offset" />
          </mxGeometry>
        </mxCell>
      </root>
    </mxGraphModel>
  </diagram>
</mxfile>
